<?xml version="1.0" encoding="UTF-8"?><svg id="Sponsorlogo" xmlns="http://www.w3.org/2000/svg" viewBox="0 0 120 340.19"><defs><style>.cls-1{fill:#ec0000;}</style></defs><g id="Andreaskruisen"><polygon class="cls-1" points="0 320.19 30 290.19 0 260.19 20 240.19 50 270.19 80 240.19 100 260.19 70 290.19 100 320.19 80 340.19 50 310.19 20 340.19 0 320.19"/><polygon class="cls-1" points="0 200.2 30 170.2 0 140.2 20 120.2 50 150.2 80 120.2 100 140.2 70 170.2 100 200.2 80 220.2 50 190.2 20 220.2 0 200.2"/><polygon class="cls-1" points="0 80 30 50 0 20 20 0 50 30 80 0 100 20 70 50 100 80 80 100 50 70 20.01 100 0 80"/></g></svg>